<?xml version="1.0" standalone="no"?>
<!DOCTYPE svg PUBLIC "-//W3C//DTD SVG 20010904//EN"
 "http://www.w3.org/TR/2001/REC-SVG-20010904/DTD/svg10.dtd">
<svg version="1.0" xmlns="http://www.w3.org/2000/svg"
 width="800.000000pt" height="467.000000pt" viewBox="0 0 800.000000 467.000000"
 preserveAspectRatio="xMidYMid meet">

<g transform="translate(0.000000,467.000000) scale(0.100000,-0.100000)"
fill="#000000" stroke="none">
<path d="M1487 3943 c-4 -3 -7 -238 -7 -522 l0 -515 -52 50 c-109 104 -161
135 -276 164 -235 60 -465 -29 -630 -243 -46 -59 -120 -201 -134 -257 -23 -88
-39 -199 -36 -250 l3 -55 240 0 240 0 2 38 c3 83 50 183 114 244 63 58 115 78
204 77 110 0 180 -38 251 -135 40 -54 53 -89 62 -169 l7 -55 233 -3 232 -2 0
820 0 820 -223 0 c-123 0 -227 -3 -230 -7z"/>
<path d="M2935 3084 c-119 -16 -279 -80 -355 -140 -64 -51 -165 -161 -199
-218 -65 -108 -111 -263 -111 -373 l0 -43 774 0 c437 0 777 4 780 9 11 17 -33
217 -63 291 -84 205 -258 373 -458 441 -74 25 -106 30 -213 34 -69 2 -138 2
-155 -1z m240 -334 c67 -32 139 -124 158 -202 4 -14 10 -33 13 -42 6 -14 -24
-16 -298 -16 -168 0 -307 3 -310 6 -10 9 18 98 44 139 35 55 64 79 128 109 73
34 201 37 265 6z"/>
<path d="M4650 3080 c-267 -41 -500 -242 -595 -509 -18 -51 -48 -230 -41 -247
5 -12 127 -14 776 -14 688 0 771 2 777 16 8 21 -14 155 -38 227 -38 118 -99
216 -194 312 -98 100 -178 151 -298 192 -58 19 -98 25 -202 28 -71 2 -155 0
-185 -5z m295 -344 c53 -32 98 -86 124 -155 40 -99 63 -91 -279 -91 -242 0
-302 3 -306 13 -9 25 38 130 78 173 54 59 116 87 208 94 86 6 115 1 175 -34z"/>
<path d="M6740 3084 c-57 -7 -123 -26 -160 -48 -65 -37 -149 -106 -177 -146
-15 -22 -31 -40 -35 -40 -5 0 -8 47 -8 105 l0 105 -230 0 -230 0 0 -375 0
-375 235 0 234 0 11 43 c16 68 72 167 114 203 79 68 194 91 290 58 67 -23 152
-105 188 -179 15 -33 28 -69 28 -81 0 -42 13 -44 252 -44 198 0 229 2 235 16
8 23 -15 158 -43 249 -72 228 -242 421 -429 485 -57 20 -204 32 -275 24z"/>
<path d="M0 1155 l0 -1155 4000 0 4000 0 0 1155 0 1155 -249 0 -248 0 -7 -37
c-3 -21 -6 -59 -6 -86 0 -176 -135 -433 -289 -552 -206 -158 -486 -164 -674
-14 -34 28 -83 75 -109 105 l-48 56 0 -461 0 -461 -240 0 -240 0 0 725 0 726
-157 -3 -158 -3 -3 -52 -3 -53 -543 0 -543 0 7 -44 c9 -60 52 -145 96 -189 60
-60 116 -82 209 -82 107 0 176 32 260 121 l60 64 165 -55 c236 -80 250 -85
250 -99 0 -7 -27 -50 -61 -95 -153 -205 -379 -311 -664 -311 -457 0 -755 268
-791 713 l-7 87 -88 0 -89 0 0 -55 0 -55 -546 0 -547 0 6 -43 c14 -100 85
-202 173 -247 40 -21 63 -25 129 -25 108 0 174 31 261 120 l63 65 38 -14 c21
-8 112 -38 203 -67 91 -29 169 -56 173 -60 15 -12 -88 -152 -158 -217 -64 -58
-179 -127 -267 -158 -72 -25 -198 -44 -303 -44 -277 0 -495 99 -637 289 -87
116 -157 321 -158 459 l0 52 -155 0 -155 0 0 -385 0 -385 -232 2 -233 3 -5
125 c-3 69 -7 120 -8 113 -4 -23 -106 -125 -165 -165 -33 -22 -87 -52 -121
-66 -55 -23 -74 -26 -191 -26 -113 -1 -139 2 -197 23 -168 61 -319 230 -408
456 -21 53 -40 162 -40 230 l0 75 -175 0 -175 0 0 -1155z"/>
<path d="M843 2241 c12 -144 108 -263 234 -289 98 -21 211 15 286 93 45 47 94
149 100 213 l6 52 -316 0 -316 0 6 -69z"/>
<path d="M6380 2258 c0 -95 81 -230 165 -276 83 -45 175 -54 259 -26 57 20
137 96 165 157 20 45 41 133 41 172 l0 25 -315 0 -315 0 0 -52z"/>
</g>
</svg>
